<svg width="266" height="121" viewBox="0 0 266 121" fill="none" xmlns="http://www.w3.org/2000/svg">
<path d="M219.819 68.42C216.899 68.42 214.259 67.92 211.899 66.92C209.579 65.92 207.739 64.48 206.379 62.6C205.019 60.72 204.319 58.5 204.279 55.94H213.279C213.399 57.66 213.999 59.02 215.079 60.02C216.199 61.02 217.719 61.52 219.639 61.52C221.599 61.52 223.139 61.06 224.259 60.14C225.379 59.18 225.939 57.94 225.939 56.42C225.939 55.18 225.559 54.16 224.799 53.36C224.039 52.56 223.079 51.94 221.919 51.5C220.799 51.02 219.239 50.5 217.239 49.94C214.519 49.14 212.299 48.36 210.579 47.6C208.899 46.8 207.439 45.62 206.199 44.06C204.999 42.46 204.399 40.34 204.399 37.7C204.399 35.22 205.019 33.06 206.259 31.22C207.499 29.38 209.239 27.98 211.479 27.02C213.719 26.02 216.279 25.52 219.159 25.52C223.479 25.52 226.979 26.58 229.659 28.7C232.379 30.78 233.879 33.7 234.159 37.46H224.919C224.839 36.02 224.219 34.84 223.059 33.92C221.939 32.96 220.439 32.48 218.559 32.48C216.919 32.48 215.599 32.9 214.599 33.74C213.639 34.58 213.159 35.8 213.159 37.4C213.159 38.52 213.519 39.46 214.239 40.22C214.999 40.94 215.919 41.54 216.999 42.02C218.119 42.46 219.679 42.98 221.679 43.58C224.399 44.38 226.619 45.18 228.339 45.98C230.059 46.78 231.539 47.98 232.779 49.58C234.019 51.18 234.639 53.28 234.639 55.88C234.639 58.12 234.059 60.2 232.899 62.12C231.739 64.04 230.039 65.58 227.799 66.74C225.559 67.86 222.899 68.42 219.819 68.42Z" fill="#5E9E50"/>
<path d="M57.7727 38.72C56.8127 36.96 55.4927 35.62 53.8127 34.7C52.1327 33.78 50.1727 33.32 47.9327 33.32C45.4527 33.32 43.2527 33.88 41.3327 35C39.4127 36.12 37.9127 37.72 36.8327 39.8C35.7527 41.88 35.2127 44.28 35.2127 47C35.2127 49.8 35.7527 52.24 36.8327 54.32C37.9527 56.4 39.4927 58 41.4527 59.12C43.4127 60.24 45.6927 60.8 48.2927 60.8C51.4927 60.8 54.1127 59.96 56.1527 58.28C58.1927 56.56 59.5327 54.18 60.1727 51.14H45.7727V44.72H68.4527V52.04C67.8927 54.96 66.6927 57.66 64.8527 60.14C63.0127 62.62 60.6327 64.62 57.7127 66.14C54.8327 67.62 51.5927 68.36 47.9927 68.36C43.9527 68.36 40.2927 67.46 37.0127 65.66C33.7727 63.82 31.2127 61.28 29.3327 58.04C27.4927 54.8 26.5727 51.12 26.5727 47C26.5727 42.88 27.4927 39.2 29.3327 35.96C31.2127 32.68 33.7727 30.14 37.0127 28.34C40.2927 26.5 43.9327 25.58 47.9327 25.58C52.6527 25.58 56.7527 26.74 60.2327 29.06C63.7127 31.34 66.1127 34.56 67.4327 38.72H57.7727Z" fill="#3C72D6"/>
<path d="M54.4327 107.544V120H52.7947V110.712L48.6547 120H47.5027L43.3447 110.694V120H41.7067V107.544H43.4707L48.0787 117.84L52.6867 107.544H54.4327ZM61.1526 120.162C60.2286 120.162 59.3886 119.952 58.6326 119.532C57.8886 119.112 57.3006 118.518 56.8686 117.75C56.4486 116.97 56.2386 116.07 56.2386 115.05C56.2386 114.042 56.4546 113.154 56.8866 112.386C57.3306 111.606 57.9306 111.012 58.6866 110.604C59.4426 110.184 60.2886 109.974 61.2246 109.974C62.1606 109.974 63.0066 110.184 63.7626 110.604C64.5186 111.012 65.1126 111.6 65.5446 112.368C65.9886 113.136 66.2106 114.03 66.2106 115.05C66.2106 116.07 65.9826 116.97 65.5266 117.75C65.0826 118.518 64.4766 119.112 63.7086 119.532C62.9406 119.952 62.0886 120.162 61.1526 120.162ZM61.1526 118.722C61.7406 118.722 62.2926 118.584 62.8086 118.308C63.3246 118.032 63.7386 117.618 64.0506 117.066C64.3746 116.514 64.5366 115.842 64.5366 115.05C64.5366 114.258 64.3806 113.586 64.0686 113.034C63.7566 112.482 63.3486 112.074 62.8446 111.81C62.3406 111.534 61.7946 111.396 61.2066 111.396C60.6066 111.396 60.0546 111.534 59.5506 111.81C59.0586 112.074 58.6626 112.482 58.3626 113.034C58.0626 113.586 57.9126 114.258 57.9126 115.05C57.9126 115.854 58.0566 116.532 58.3446 117.084C58.6446 117.636 59.0406 118.05 59.5326 118.326C60.0246 118.59 60.5646 118.722 61.1526 118.722ZM71.6763 118.488L74.7363 110.136H76.4823L72.6123 120H70.7043L66.8343 110.136H68.5983L71.6763 118.488ZM86.7342 114.69C86.7342 115.002 86.7162 115.332 86.6802 115.68H78.7962C78.8562 116.652 79.1862 117.414 79.7862 117.966C80.3982 118.506 81.1362 118.776 82.0002 118.776C82.7082 118.776 83.2962 118.614 83.7642 118.29C84.2442 117.954 84.5802 117.51 84.7722 116.958H86.5362C86.2722 117.906 85.7442 118.68 84.9522 119.28C84.1602 119.868 83.1762 120.162 82.0002 120.162C81.0642 120.162 80.2242 119.952 79.4802 119.532C78.7482 119.112 78.1722 118.518 77.7522 117.75C77.3322 116.97 77.1222 116.07 77.1222 115.05C77.1222 114.03 77.3262 113.136 77.7342 112.368C78.1422 111.6 78.7122 111.012 79.4442 110.604C80.1882 110.184 81.0402 109.974 82.0002 109.974C82.9362 109.974 83.7642 110.178 84.4842 110.586C85.2042 110.994 85.7562 111.558 86.1402 112.278C86.5362 112.986 86.7342 113.79 86.7342 114.69ZM85.0422 114.348C85.0422 113.724 84.9042 113.19 84.6282 112.746C84.3522 112.29 83.9742 111.948 83.4942 111.72C83.0262 111.48 82.5042 111.36 81.9282 111.36C81.1002 111.36 80.3922 111.624 79.8042 112.152C79.2282 112.68 78.8982 113.412 78.8142 114.348H85.0422ZM100.398 109.956C101.166 109.956 101.85 110.118 102.45 110.442C103.05 110.754 103.524 111.228 103.872 111.864C104.22 112.5 104.394 113.274 104.394 114.186V120H102.774V114.42C102.774 113.436 102.528 112.686 102.036 112.17C101.556 111.642 100.902 111.378 100.074 111.378C99.2223 111.378 98.5443 111.654 98.0403 112.206C97.5363 112.746 97.2843 113.532 97.2843 114.564V120H95.6643V114.42C95.6643 113.436 95.4183 112.686 94.9263 112.17C94.4463 111.642 93.7923 111.378 92.9643 111.378C92.1123 111.378 91.4343 111.654 90.9303 112.206C90.4263 112.746 90.1743 113.532 90.1743 114.564V120H88.5363V110.136H90.1743V111.558C90.4983 111.042 90.9303 110.646 91.4703 110.37C92.0223 110.094 92.6283 109.956 93.2883 109.956C94.1163 109.956 94.8483 110.142 95.4843 110.514C96.1203 110.886 96.5943 111.432 96.9063 112.152C97.1823 111.456 97.6383 110.916 98.2743 110.532C98.9103 110.148 99.6183 109.956 100.398 109.956ZM115.721 114.69C115.721 115.002 115.703 115.332 115.667 115.68H107.783C107.843 116.652 108.173 117.414 108.773 117.966C109.385 118.506 110.123 118.776 110.987 118.776C111.695 118.776 112.283 118.614 112.751 118.29C113.231 117.954 113.567 117.51 113.759 116.958H115.523C115.259 117.906 114.731 118.68 113.939 119.28C113.147 119.868 112.163 120.162 110.987 120.162C110.051 120.162 109.211 119.952 108.467 119.532C107.735 119.112 107.159 118.518 106.739 117.75C106.319 116.97 106.109 116.07 106.109 115.05C106.109 114.03 106.313 113.136 106.721 112.368C107.129 111.6 107.699 111.012 108.431 110.604C109.175 110.184 110.027 109.974 110.987 109.974C111.923 109.974 112.751 110.178 113.471 110.586C114.191 110.994 114.743 111.558 115.127 112.278C115.523 112.986 115.721 113.79 115.721 114.69ZM114.029 114.348C114.029 113.724 113.891 113.19 113.615 112.746C113.339 112.29 112.961 111.948 112.481 111.72C112.013 111.48 111.491 111.36 110.915 111.36C110.087 111.36 109.379 111.624 108.791 112.152C108.215 112.68 107.885 113.412 107.801 114.348H114.029ZM122.329 109.956C123.529 109.956 124.501 110.322 125.245 111.054C125.989 111.774 126.361 112.818 126.361 114.186V120H124.741V114.42C124.741 113.436 124.495 112.686 124.003 112.17C123.511 111.642 122.839 111.378 121.987 111.378C121.123 111.378 120.433 111.648 119.917 112.188C119.413 112.728 119.161 113.514 119.161 114.546V120H117.523V110.136H119.161V111.54C119.485 111.036 119.923 110.646 120.475 110.37C121.039 110.094 121.657 109.956 122.329 109.956ZM130.675 111.486V117.3C130.675 117.78 130.777 118.122 130.981 118.326C131.185 118.518 131.539 118.614 132.043 118.614H133.249V120H131.773C130.861 120 130.177 119.79 129.721 119.37C129.265 118.95 129.037 118.26 129.037 117.3V111.486H127.759V110.136H129.037V107.652H130.675V110.136H133.249V111.486H130.675ZM145.918 120L142.93 114.87H140.95V120H139.312V107.454H143.362C144.31 107.454 145.108 107.616 145.756 107.94C146.416 108.264 146.908 108.702 147.232 109.254C147.556 109.806 147.718 110.436 147.718 111.144C147.718 112.008 147.466 112.77 146.962 113.43C146.47 114.09 145.726 114.528 144.73 114.744L147.88 120H145.918ZM140.95 113.556H143.362C144.25 113.556 144.916 113.34 145.36 112.908C145.804 112.464 146.026 111.876 146.026 111.144C146.026 110.4 145.804 109.824 145.36 109.416C144.928 109.008 144.262 108.804 143.362 108.804H140.95V113.556ZM158.904 114.69C158.904 115.002 158.886 115.332 158.85 115.68H150.966C151.026 116.652 151.356 117.414 151.956 117.966C152.568 118.506 153.306 118.776 154.17 118.776C154.878 118.776 155.466 118.614 155.934 118.29C156.414 117.954 156.75 117.51 156.942 116.958H158.706C158.442 117.906 157.914 118.68 157.122 119.28C156.33 119.868 155.346 120.162 154.17 120.162C153.234 120.162 152.394 119.952 151.65 119.532C150.918 119.112 150.342 118.518 149.922 117.75C149.502 116.97 149.292 116.07 149.292 115.05C149.292 114.03 149.496 113.136 149.904 112.368C150.312 111.6 150.882 111.012 151.614 110.604C152.358 110.184 153.21 109.974 154.17 109.974C155.106 109.974 155.934 110.178 156.654 110.586C157.374 110.994 157.926 111.558 158.31 112.278C158.706 112.986 158.904 113.79 158.904 114.69ZM157.212 114.348C157.212 113.724 157.074 113.19 156.798 112.746C156.522 112.29 156.144 111.948 155.664 111.72C155.196 111.48 154.674 111.36 154.098 111.36C153.27 111.36 152.562 111.624 151.974 112.152C151.398 112.68 151.068 113.412 150.984 114.348H157.212ZM160.094 115.032C160.094 114.024 160.298 113.142 160.706 112.386C161.114 111.618 161.672 111.024 162.38 110.604C163.1 110.184 163.904 109.974 164.792 109.974C165.56 109.974 166.274 110.154 166.934 110.514C167.594 110.862 168.098 111.324 168.446 111.9V106.68H170.102V120H168.446V118.146C168.122 118.734 167.642 119.22 167.006 119.604C166.37 119.976 165.626 120.162 164.774 120.162C163.898 120.162 163.1 119.946 162.38 119.514C161.672 119.082 161.114 118.476 160.706 117.696C160.298 116.916 160.094 116.028 160.094 115.032ZM168.446 115.05C168.446 114.306 168.296 113.658 167.996 113.106C167.696 112.554 167.288 112.134 166.772 111.846C166.268 111.546 165.71 111.396 165.098 111.396C164.486 111.396 163.928 111.54 163.424 111.828C162.92 112.116 162.518 112.536 162.218 113.088C161.918 113.64 161.768 114.288 161.768 115.032C161.768 115.788 161.918 116.448 162.218 117.012C162.518 117.564 162.92 117.99 163.424 118.29C163.928 118.578 164.486 118.722 165.098 118.722C165.71 118.722 166.268 118.578 166.772 118.29C167.288 117.99 167.696 117.564 167.996 117.012C168.296 116.448 168.446 115.794 168.446 115.05ZM181.51 114.69C181.51 115.002 181.492 115.332 181.456 115.68H173.572C173.632 116.652 173.962 117.414 174.562 117.966C175.174 118.506 175.912 118.776 176.776 118.776C177.484 118.776 178.072 118.614 178.54 118.29C179.02 117.954 179.356 117.51 179.548 116.958H181.312C181.048 117.906 180.52 118.68 179.728 119.28C178.936 119.868 177.952 120.162 176.776 120.162C175.84 120.162 175 119.952 174.256 119.532C173.524 119.112 172.948 118.518 172.528 117.75C172.108 116.97 171.898 116.07 171.898 115.05C171.898 114.03 172.102 113.136 172.51 112.368C172.918 111.6 173.488 111.012 174.22 110.604C174.964 110.184 175.816 109.974 176.776 109.974C177.712 109.974 178.54 110.178 179.26 110.586C179.98 110.994 180.532 111.558 180.916 112.278C181.312 112.986 181.51 113.79 181.51 114.69ZM179.818 114.348C179.818 113.724 179.68 113.19 179.404 112.746C179.128 112.29 178.75 111.948 178.27 111.72C177.802 111.48 177.28 111.36 176.704 111.36C175.876 111.36 175.168 111.624 174.58 112.152C174.004 112.68 173.674 113.412 173.59 114.348H179.818ZM187.326 111.486H185.256V120H183.618V111.486H182.34V110.136H183.618V109.434C183.618 108.33 183.9 107.526 184.464 107.022C185.04 106.506 185.958 106.248 187.218 106.248V107.616C186.498 107.616 185.988 107.76 185.688 108.048C185.4 108.324 185.256 108.786 185.256 109.434V110.136H187.326V111.486ZM189.722 108.534C189.41 108.534 189.146 108.426 188.93 108.21C188.714 107.994 188.606 107.73 188.606 107.418C188.606 107.106 188.714 106.842 188.93 106.626C189.146 106.41 189.41 106.302 189.722 106.302C190.022 106.302 190.274 106.41 190.478 106.626C190.694 106.842 190.802 107.106 190.802 107.418C190.802 107.73 190.694 107.994 190.478 108.21C190.274 108.426 190.022 108.534 189.722 108.534ZM190.514 110.136V120H188.876V110.136H190.514ZM197.751 109.956C198.951 109.956 199.923 110.322 200.667 111.054C201.411 111.774 201.783 112.818 201.783 114.186V120H200.163V114.42C200.163 113.436 199.917 112.686 199.425 112.17C198.933 111.642 198.261 111.378 197.409 111.378C196.545 111.378 195.855 111.648 195.339 112.188C194.835 112.728 194.583 113.514 194.583 114.546V120H192.945V110.136H194.583V111.54C194.907 111.036 195.345 110.646 195.897 110.37C196.461 110.094 197.079 109.956 197.751 109.956ZM213.099 114.69C213.099 115.002 213.081 115.332 213.045 115.68H205.161C205.221 116.652 205.551 117.414 206.151 117.966C206.763 118.506 207.501 118.776 208.365 118.776C209.073 118.776 209.661 118.614 210.129 118.29C210.609 117.954 210.945 117.51 211.137 116.958H212.901C212.637 117.906 212.109 118.68 211.317 119.28C210.525 119.868 209.541 120.162 208.365 120.162C207.429 120.162 206.589 119.952 205.845 119.532C205.113 119.112 204.537 118.518 204.117 117.75C203.697 116.97 203.487 116.07 203.487 115.05C203.487 114.03 203.691 113.136 204.099 112.368C204.507 111.6 205.077 111.012 205.809 110.604C206.553 110.184 207.405 109.974 208.365 109.974C209.301 109.974 210.129 110.178 210.849 110.586C211.569 110.994 212.121 111.558 212.505 112.278C212.901 112.986 213.099 113.79 213.099 114.69ZM211.407 114.348C211.407 113.724 211.269 113.19 210.993 112.746C210.717 112.29 210.339 111.948 209.859 111.72C209.391 111.48 208.869 111.36 208.293 111.36C207.465 111.36 206.757 111.624 206.169 112.152C205.593 112.68 205.263 113.412 205.179 114.348H211.407ZM214.289 115.032C214.289 114.024 214.493 113.142 214.901 112.386C215.309 111.618 215.867 111.024 216.575 110.604C217.295 110.184 218.099 109.974 218.987 109.974C219.755 109.974 220.469 110.154 221.129 110.514C221.789 110.862 222.293 111.324 222.641 111.9V106.68H224.297V120H222.641V118.146C222.317 118.734 221.837 119.22 221.201 119.604C220.565 119.976 219.821 120.162 218.969 120.162C218.093 120.162 217.295 119.946 216.575 119.514C215.867 119.082 215.309 118.476 214.901 117.696C214.493 116.916 214.289 116.028 214.289 115.032ZM222.641 115.05C222.641 114.306 222.491 113.658 222.191 113.106C221.891 112.554 221.483 112.134 220.967 111.846C220.463 111.546 219.905 111.396 219.293 111.396C218.681 111.396 218.123 111.54 217.619 111.828C217.115 112.116 216.713 112.536 216.413 113.088C216.113 113.64 215.963 114.288 215.963 115.032C215.963 115.788 216.113 116.448 216.413 117.012C216.713 117.564 217.115 117.99 217.619 118.29C218.123 118.578 218.681 118.722 219.293 118.722C219.905 118.722 220.463 118.578 220.967 118.29C221.483 117.99 221.891 117.564 222.191 117.012C222.491 116.448 222.641 115.794 222.641 115.05Z" fill="white"/>
<path d="M155.818 26.12V68H147.418V40.76L136.198 68H129.838L118.558 40.76V68H110.158V26.12H119.698L133.018 57.26L146.338 26.12H155.818Z" fill="#DD3E3A"/>
<circle cx="176" cy="47" r="4" fill="#DD3E3A"/>
<circle cx="90" cy="47" r="4" fill="#3C72D6"/>
<path d="M93.9902 47H86V46.999H93.9902V47ZM133 0C145.465 9.32567e-07 157.42 4.95142 166.234 13.7656C175.048 22.5796 180 34.5342 180 46.999H172.01C172.01 36.6533 167.9 26.7316 160.584 19.416C153.268 12.1002 143.346 7.99024 133 7.99023C122.654 7.99023 112.732 12.1002 105.416 19.416C100.851 23.9808 97.5335 29.5599 95.6846 35.624C94.7899 31.7954 93.4506 28.0896 91.6924 24.584C93.8307 20.6433 96.538 16.9932 99.7656 13.7656C108.58 4.95142 120.535 -1.48646e-07 133 0Z" fill="#DD3E3A"/>
<path d="M47 0C72.9574 0 94 21.0426 94 47H86.0098C86.0098 25.4554 68.5446 7.99023 47 7.99023C25.4554 7.99023 7.99023 25.4554 7.99023 47C7.99023 68.5446 25.4554 86.0098 47 86.0098C64.5799 86.0098 79.4411 74.3804 84.3164 58.3955C84.9335 61.032 85.7646 63.6204 86.8057 66.1338C87.2685 67.2511 87.7716 68.35 88.3125 69.4277C80.3494 84.065 64.8354 94 47 94C21.0426 94 0 72.9574 0 47C0 21.0426 21.0426 0 47 0Z" fill="#3C72D6"/>
<path d="M219 0C244.957 0 266 21.0426 266 47C266 72.9574 244.957 94 219 94C195.498 94 176.025 76.7496 172.552 54.2197C173.596 54.7194 174.765 55 176 55C177.689 55 179.255 54.4746 180.546 53.5811C183.674 71.9916 199.698 86.0098 219 86.0098C240.545 86.0098 258.01 68.5446 258.01 47C258.01 25.4554 240.545 7.99023 219 7.99023C201.42 7.99023 186.559 19.619 181.684 35.6035C181.066 32.9673 180.235 30.3793 179.194 27.8662C178.731 26.7486 178.229 25.6493 177.688 24.5713C185.651 9.93449 201.165 0 219 0Z" fill="#5E9E50"/>
<path d="M94.5459 53.5811C97.674 71.9916 113.698 86.0098 133 86.0098C150.581 86.0098 165.443 74.3785 170.317 58.3916C171.213 62.2189 172.554 65.9235 174.312 69.4277C166.349 84.065 150.835 94 133 94C109.498 94 90.0252 76.7496 86.5518 54.2197C87.596 54.7194 88.7651 55 90 55C91.6891 55 93.2547 54.4746 94.5459 53.5811ZM133 0C158.957 0 180 21.0426 180 47H172.01C172.01 25.4554 154.545 7.99023 133 7.99023C115.418 7.99023 100.555 19.6212 95.6807 35.6084C94.7849 31.7808 93.4454 28.0758 91.6865 24.5713C99.6497 9.93426 115.165 0 133 0Z" fill="#DD3E3A"/>
</svg>
