<svg width="30" height="30" viewBox="0 0 30 30" fill="none" xmlns="http://www.w3.org/2000/svg">
<mask id="mask0_35_307" style="mask-type:alpha" maskUnits="userSpaceOnUse" x="0" y="0" width="30" height="30">
<rect width="30" height="30" fill="#D9D9D9"/>
</mask>
<g mask="url(#mask0_35_307)">
<path d="M11.1122 27.5152C10.1368 27.5152 9.27542 27.2219 8.52813 26.6352C7.78083 26.0488 7.26156 25.2945 6.97031 24.3724C6.67719 24.8499 6.29781 25.22 5.83219 25.4827C5.36656 25.7452 4.84667 25.8765 4.2725 25.8765C3.34563 25.8765 2.56854 25.5532 1.94125 24.9065C1.31375 24.2598 1 23.4838 1 22.5784C1 21.6846 1.29167 20.9314 1.875 20.3187C2.45833 19.706 3.20031 19.3914 4.10094 19.3749C3.70573 18.9743 3.39458 18.5018 3.1675 17.9574C2.94042 17.413 2.82688 16.8533 2.82688 16.278C2.82688 15.5393 3.01281 14.8452 3.38469 14.1959C3.75656 13.5465 4.28354 13.0199 4.96562 12.6162C5.05104 12.8416 5.15667 13.0862 5.2825 13.3499C5.40833 13.6139 5.53823 13.8463 5.67219 14.0471C5.27052 14.3254 4.96073 14.665 4.74281 15.0659C4.5249 15.4669 4.41594 15.8857 4.41594 16.3221C4.41594 17.5977 4.90844 18.409 5.89344 18.7559C6.87844 19.1029 7.85792 19.3721 8.83188 19.5634L9.1425 20.1202C8.90479 20.8125 8.71083 21.3923 8.56063 21.8596C8.41021 22.3271 8.335 22.7566 8.335 23.148C8.335 23.8928 8.6101 24.5432 9.16031 25.099C9.71052 25.6548 10.3641 25.9327 11.1209 25.9327C11.9864 25.9327 12.7006 25.5864 13.2638 24.8937C13.8267 24.2012 14.285 23.378 14.6388 22.4243C14.9923 21.4705 15.2657 20.497 15.4591 19.5037C15.6526 18.5103 15.8138 17.7207 15.9425 17.1346L17.4744 17.5624C17.3002 18.4214 17.09 19.4214 16.8438 20.5624C16.5975 21.7035 16.2472 22.7886 15.7928 23.8177C15.3384 24.8467 14.7408 25.7201 14 26.438C13.2592 27.1562 12.2966 27.5152 11.1122 27.5152ZM4.28531 24.3059C4.76448 24.3059 5.1701 24.1399 5.50219 23.808C5.83406 23.476 6 23.0717 6 22.5952C6 22.1188 5.83406 21.7132 5.50219 21.3784C5.1701 21.0438 4.76448 20.8765 4.28531 20.8765C3.81156 20.8765 3.40729 21.0438 3.0725 21.3784C2.73792 21.7132 2.57063 22.1188 2.57063 22.5952C2.57063 23.0717 2.73792 23.476 3.0725 23.808C3.40729 24.1399 3.81156 24.3059 4.28531 24.3059ZM12.7684 18.778C11.8747 17.9805 11.0607 17.2376 10.3266 16.5493C9.5924 15.861 8.96021 15.186 8.43 14.5243C7.89979 13.8628 7.48969 13.2069 7.19969 12.5565C6.90948 11.9061 6.76437 11.2219 6.76437 10.504C6.76437 9.28607 7.18583 8.2569 8.02875 7.41648C8.87188 6.57628 9.89969 6.15617 11.1122 6.15617C11.3157 6.15617 11.5055 6.16544 11.6816 6.18398C11.8576 6.20232 12.0271 6.23471 12.19 6.28117C12.0452 6.01034 11.9381 5.76159 11.8688 5.53492C11.7992 5.30805 11.7644 5.07576 11.7644 4.83805C11.7644 3.92409 12.0834 3.14805 12.7216 2.50992C13.3597 1.8718 14.1357 1.55273 15.0497 1.55273C15.9636 1.55273 16.7397 1.8718 17.3778 2.50992C18.0159 3.14805 18.335 3.92409 18.335 4.83805C18.335 5.06721 18.3024 5.29628 18.2372 5.52523C18.172 5.75419 18.0627 6.00409 17.9094 6.27492C18.0723 6.22846 18.2418 6.19701 18.4178 6.18055C18.5939 6.1643 18.7836 6.15617 18.9872 6.15617C20.0539 6.15617 20.9693 6.47992 21.7334 7.12742C22.4976 7.77471 22.9785 8.59117 23.1763 9.5768C22.9344 9.55284 22.6669 9.54294 22.3738 9.54711C22.0808 9.55148 21.8113 9.57044 21.565 9.60398C21.396 9.04898 21.0832 8.59732 20.6266 8.24898C20.1699 7.90086 19.6234 7.7268 18.9872 7.7268C18.217 7.7268 17.6048 7.9343 17.1506 8.3493C16.6967 8.7643 16.0962 9.40555 15.3494 10.273H14.7188C13.9565 9.372 13.3483 8.72232 12.8944 8.32398C12.4402 7.92586 11.8461 7.7268 11.1122 7.7268C10.3178 7.7268 9.65635 7.99107 9.12781 8.51961C8.59927 9.04815 8.335 9.70961 8.335 10.504C8.335 10.9917 8.46437 11.4949 8.72312 12.0137C8.98187 12.5322 9.35219 13.0836 9.83406 13.6677C10.3159 14.2519 10.8993 14.8703 11.5841 15.523C12.2689 16.176 13.0386 16.886 13.8934 17.653L12.7684 18.778ZM16.2666 6.05492C16.5984 5.72284 16.7644 5.31721 16.7644 4.83805C16.7644 4.35888 16.5984 3.95336 16.2666 3.62148C15.9345 3.2894 15.5289 3.12336 15.0497 3.12336C14.5705 3.12336 14.1649 3.2894 13.8328 3.62148C13.5009 3.95336 13.335 4.35888 13.335 4.83805C13.335 5.31721 13.5009 5.72284 13.8328 6.05492C14.1649 6.3868 14.5705 6.55273 15.0497 6.55273C15.5289 6.55273 15.9345 6.3868 16.2666 6.05492ZM18.9319 27.5399C18.5538 27.5399 18.1807 27.4878 17.8128 27.3837C17.4451 27.2795 17.089 27.1198 16.7444 26.9046C16.8813 26.7075 17.022 26.4789 17.1666 26.2187C17.3114 25.9585 17.4338 25.7173 17.5338 25.4952C17.7698 25.6486 18.01 25.7618 18.2544 25.8349C18.4988 25.908 18.7433 25.9446 18.9881 25.9446C19.7577 25.9446 20.4141 25.6667 20.9572 25.1109C21.5001 24.555 21.7716 23.8987 21.7716 23.1418C21.7716 22.7374 21.6929 22.3046 21.5356 21.8434C21.3783 21.3821 21.1878 20.8096 20.9641 20.1259L21.2869 19.5768C22.2869 19.3941 23.2728 19.1273 24.2447 18.7765C25.2168 18.4254 25.7028 17.6121 25.7028 16.3365C25.7028 15.3754 25.3595 14.6618 24.6728 14.1955C23.9859 13.7291 23.2154 13.4959 22.3612 13.4959C21.5023 13.4959 20.4938 13.6505 19.3356 13.9599C18.1775 14.2691 16.837 14.6761 15.3141 15.1809L14.9072 13.649C16.4134 13.1602 17.7713 12.7468 18.9806 12.4087C20.1902 12.0705 21.2952 11.9015 22.2956 11.9015C23.5969 11.9015 24.7518 12.2871 25.7603 13.0584C26.7689 13.8298 27.2731 14.9183 27.2731 16.3237C27.2731 16.8989 27.163 17.4505 26.9428 17.9787C26.7224 18.5068 26.4119 18.9765 26.0113 19.3877C26.9033 19.4123 27.6431 19.7304 28.2306 20.3421C28.8183 20.9538 29.1122 21.7035 29.1122 22.5912C29.1122 23.4941 28.7984 24.2709 28.1709 24.9215C27.5436 25.5721 26.7666 25.8974 25.8397 25.8974C25.2741 25.8974 24.7542 25.7661 24.28 25.5034C23.8058 25.2409 23.4265 24.8682 23.1419 24.3852C22.8369 25.3073 22.308 26.0636 21.5553 26.654C20.8026 27.2446 19.9281 27.5399 18.9319 27.5399ZM27.0487 23.8249C27.3773 23.4901 27.5416 23.0859 27.5416 22.6121C27.5416 22.1469 27.3721 21.7396 27.0331 21.3902C26.6942 21.0409 26.2921 20.8662 25.8269 20.8662C25.3617 20.8662 24.9596 21.0357 24.6206 21.3746C24.2817 21.7136 24.1122 22.1157 24.1122 22.5809C24.1122 23.0461 24.2869 23.4534 24.6363 23.8027C24.9856 24.1521 25.3929 24.3268 25.8581 24.3268C26.3233 24.3268 26.7202 24.1595 27.0487 23.8249Z" fill="white"/>
</g>
</svg>
