<svg width="30" height="30" viewBox="0 0 30 30" fill="none" xmlns="http://www.w3.org/2000/svg">
<mask id="mask0_35_315" style="mask-type:alpha" maskUnits="userSpaceOnUse" x="0" y="0" width="30" height="30">
<rect width="30" height="30" fill="#D9D9D9"/>
</mask>
<g mask="url(#mask0_35_315)">
<path d="M4.96184 25.6248C4.42454 25.6248 3.96434 25.4332 3.58121 25.0501C3.19829 24.6669 3.00684 24.2067 3.00684 23.6694V6.33007C3.00684 5.79278 3.19829 5.33257 3.58121 4.94944C3.96434 4.56632 4.42454 4.37476 4.96184 4.37476H25.0387C25.576 4.37476 26.0362 4.56632 26.4193 4.94944C26.8023 5.33257 26.9937 5.79278 26.9937 6.33007V23.6694C26.9937 24.2067 26.8023 24.6669 26.4193 25.0501C26.0362 25.4332 25.576 25.6248 25.0387 25.6248H4.96184ZM4.96184 24.0541H25.0387C25.135 24.0541 25.2231 24.0141 25.3031 23.9341C25.3833 23.8539 25.4234 23.7657 25.4234 23.6694V6.33007C25.4234 6.23382 25.3833 6.14559 25.3031 6.06538C25.2231 5.98538 25.135 5.94538 25.0387 5.94538H4.96184C4.86559 5.94538 4.77746 5.98538 4.69746 6.06538C4.61725 6.14559 4.57715 6.23382 4.57715 6.33007V23.6694C4.57715 23.7657 4.61725 23.8539 4.69746 23.9341C4.77746 24.0141 4.86559 24.0541 4.96184 24.0541ZM6.56277 20.9373H12.1878V19.0623H6.56277V20.9373ZM18.1878 18.3051L23.9306 12.5623L22.594 11.2257L18.1878 15.6632L16.4065 13.8819L15.1012 15.2185L18.1878 18.3051ZM6.56277 15.9373H12.1878V14.0623H6.56277V15.9373ZM6.56277 10.9373H12.1878V9.06226H6.56277V10.9373Z" fill="white"/>
</g>
</svg>
