<svg width="30" height="30" viewBox="0 0 30 30" fill="none" xmlns="http://www.w3.org/2000/svg">
<mask id="mask0_35_300" style="mask-type:alpha" maskUnits="userSpaceOnUse" x="0" y="0" width="30" height="30">
<rect width="30" height="30" fill="#D9D9D9"/>
</mask>
<g mask="url(#mask0_35_300)">
<path d="M14.7357 25.2685C14.873 25.2685 15.0174 25.2375 15.1688 25.1757C15.3203 25.1136 15.4414 25.0345 15.5323 24.9385L25.6691 14.7885C25.9598 14.4979 26.182 14.1834 26.3357 13.845C26.4897 13.5067 26.5666 13.1524 26.5666 12.7822C26.5666 12.4029 26.4897 12.0321 26.3357 11.67C26.182 11.3077 25.9598 10.9835 25.6691 10.6972L20.517 5.54504C20.2307 5.25441 19.9184 5.03816 19.5801 4.89629C19.242 4.75441 18.8833 4.68348 18.5041 4.68348C18.1337 4.68348 17.7774 4.75441 17.4351 4.89629C17.0928 5.03816 16.7803 5.25441 16.4976 5.54504L15.6754 6.36691L18.0938 8.80441C18.3517 9.0667 18.5631 9.37285 18.7279 9.72285C18.8927 10.0726 18.9751 10.4431 18.9751 10.8341C18.9751 11.5574 18.7147 12.1761 18.1938 12.69C17.673 13.2038 17.0536 13.4607 16.3357 13.4607C15.9138 13.4607 15.5401 13.3963 15.2145 13.2675C14.8888 13.1388 14.5943 12.9444 14.331 12.6844L11.9904 10.3454L6.46476 15.871C6.3531 15.9826 6.27018 16.1084 6.21601 16.2482C6.16185 16.388 6.13476 16.5302 6.13476 16.675C6.13476 16.9542 6.22664 17.1855 6.41039 17.3688C6.59414 17.5519 6.8231 17.6435 7.09726 17.6435C7.24768 17.6435 7.39435 17.609 7.53726 17.54C7.68018 17.4711 7.79706 17.3913 7.88789 17.3007L12.0273 13.161L13.1332 14.2669L9.01289 18.3854C8.90122 18.5024 8.81831 18.6315 8.76414 18.7725C8.70997 18.9136 8.68289 19.057 8.68289 19.2029C8.68289 19.4651 8.77883 19.6923 8.9707 19.8844C9.16279 20.0763 9.38997 20.1722 9.65226 20.1722C9.7981 20.1722 9.94247 20.1413 10.0854 20.0794C10.2283 20.0173 10.3452 19.9383 10.436 19.8422L14.7198 15.565L15.8254 16.6707L11.561 20.9335C11.4658 21.0297 11.387 21.1523 11.3245 21.3013C11.262 21.4505 11.2307 21.6004 11.2307 21.751C11.2307 22.0133 11.3267 22.2404 11.5188 22.4322C11.7109 22.6243 11.9381 22.7204 12.2004 22.7204C12.3462 22.7204 12.4854 22.6933 12.6179 22.6391C12.7504 22.5849 12.8725 22.502 12.9841 22.3904L17.2676 18.1132L18.3735 19.2188L14.0898 23.5025C13.9781 23.614 13.8952 23.7443 13.841 23.8935C13.7868 24.0424 13.7598 24.1816 13.7598 24.311C13.7598 24.5983 13.8532 24.8297 14.0401 25.0054C14.2272 25.1808 14.459 25.2685 14.7357 25.2685ZM14.7307 26.8388C14.0626 26.8388 13.479 26.5949 12.9801 26.1072C12.4811 25.6195 12.2197 25.0111 12.1957 24.2819C11.4874 24.2409 10.8956 23.9927 10.4204 23.5375C9.94518 23.0825 9.68758 22.4821 9.64758 21.7363C8.90716 21.6884 8.30862 21.431 7.85195 20.9641C7.39508 20.4972 7.1507 19.9052 7.11883 19.1882C6.38903 19.1455 5.78081 18.8927 5.29414 18.43C4.80747 17.9671 4.56414 17.3754 4.56414 16.6547C4.56414 16.3118 4.63153 15.9711 4.76633 15.6325C4.90112 15.294 5.09226 14.9985 5.33976 14.746L11.9904 8.10191L15.3341 11.4457C15.4646 11.5802 15.6172 11.6887 15.792 11.771C15.9667 11.8533 16.1502 11.8944 16.3423 11.8944C16.6148 11.8944 16.861 11.7881 17.081 11.5753C17.301 11.3628 17.411 11.1139 17.411 10.8285C17.411 10.6741 17.3742 10.5196 17.3007 10.365C17.227 10.2105 17.1228 10.0652 16.9882 9.92941L12.6035 5.54504C12.3171 5.25441 12.0028 5.03816 11.6607 4.89629C11.3186 4.75441 10.9579 4.68348 10.5785 4.68348C10.2081 4.68348 9.85581 4.75441 9.52164 4.89629C9.18726 5.03816 8.87518 5.25337 8.58539 5.54191L4.31351 9.82223C4.03247 10.1031 3.82153 10.4148 3.6807 10.7575C3.54008 11.1002 3.46383 11.4741 3.45195 11.8791C3.43487 12.2172 3.48435 12.5474 3.60039 12.8697C3.71622 13.1922 3.86758 13.4879 4.05445 13.7566L2.89914 14.9038C2.59143 14.5052 2.34299 14.036 2.15383 13.496C1.96487 12.956 1.87195 12.4066 1.87508 11.8479C1.87841 11.2501 1.99487 10.679 2.22445 10.1344C2.45424 9.58962 2.77987 9.1065 3.20133 8.68504L7.44726 4.4391C7.89268 3.99785 8.38278 3.66868 8.91758 3.4516C9.45237 3.23452 10.0129 3.12598 10.5991 3.12598C11.1854 3.12598 11.7432 3.23452 12.2726 3.4516C12.802 3.66868 13.2873 3.99785 13.7285 4.4391L14.5507 5.26129L15.3726 4.4391C15.8182 3.99785 16.3064 3.66868 16.8373 3.4516C17.3679 3.23452 17.9263 3.12598 18.5126 3.12598C19.0988 3.12598 19.6586 3.23452 20.192 3.4516C20.7253 3.66868 21.2126 3.99785 21.6538 4.4391L26.7748 9.56004C27.216 10.0013 27.5534 10.5041 27.787 11.0685C28.0203 11.6326 28.137 12.2062 28.137 12.7891C28.137 13.372 28.0203 13.9282 27.787 14.4575C27.5534 14.9869 27.216 15.4722 26.7748 15.9135L16.6379 26.0441C16.3762 26.3112 16.0824 26.5105 15.7563 26.6419C15.4303 26.7732 15.0884 26.8388 14.7307 26.8388Z" fill="white"/>
</g>
</svg>
