<svg width="73" height="10" viewBox="0 0 73 10" fill="none" xmlns="http://www.w3.org/2000/svg">
<path d="M-4.71865e-05 9.72032C1.1998 9.37044 2.399 8.98301 3.58625 8.62369C11.4092 6.14916 19.3149 5.25657 27.3262 4.91637C30.1859 4.7917 32.9609 4.9411 35.8096 5.31422C46.4131 7.67834 59.2106 6.77257 69.3633 2.10854C70.5579 1.61761 71.6435 1.12952 72.8246 0.586991C71.5444 0.811282 70.3726 0.994491 69.107 1.19377C57.8365 3.18054 47.725 2.7149 36.447 0.355012C33.3457 -0.0543006 30.123 -0.124571 26.9688 0.221619C18.6713 1.09505 10.2991 3.41617 3.20243 7.75467C2.12466 8.39366 1.06381 9.06611 -4.71865e-05 9.72032Z" fill="#C55657"/>
</svg>
